<?xml version="1.0" standalone="no"?>
<!DOCTYPE svg PUBLIC "-//W3C//DTD SVG 20010904//EN"
 "http://www.w3.org/TR/2001/REC-SVG-20010904/DTD/svg10.dtd">
<svg version="1.0" xmlns="http://www.w3.org/2000/svg"
 width="744.000000pt" height="273.000000pt" viewBox="0 0 744.000000 273.000000"
 preserveAspectRatio="xMidYMid meet">
<metadata>
Created by potrace 1.10, written by Peter Selinger 2001-2011
</metadata>
<g transform="translate(0.000000,273.000000) scale(0.100000,-0.100000)"
fill="#ffffff" stroke="none">
<path d="M410 2231 c-62 -19 -160 -105 -160 -140 0 -20 85 -13 105 9 10 11 27
20 38 20 11 0 29 8 39 17 15 13 23 15 37 6 15 -9 21 -6 35 18 19 32 37 37 56
14 12 -14 15 -14 31 1 38 35 25 51 -48 57 -81 8 -100 8 -133 -2z"/>
<path d="M662 2175 c1 -22 -2 -50 -6 -61 -10 -28 20 -41 44 -19 24 22 29 19
46 -20 16 -39 14 -38 66 -26 35 8 37 7 43 -20 5 -20 14 -29 35 -34 15 -3 31
-13 34 -21 3 -8 11 -14 18 -14 9 0 13 -15 13 -42 0 -46 4 -48 67 -33 21 6 27
3 33 -14 4 -15 15 -21 34 -21 28 0 61 -26 61 -48 0 -6 15 -15 33 -20 27 -7 32
-13 32 -38 0 -29 0 -29 60 -29 47 0 60 3 63 16 2 12 -10 20 -43 29 -34 10 -56
25 -83 57 -25 30 -42 41 -54 38 -10 -4 -21 1 -28 14 -6 12 -22 24 -35 27 -14
3 -33 19 -42 35 -10 16 -37 37 -64 49 -33 14 -49 27 -51 42 -2 17 -12 24 -43
30 -26 6 -51 21 -72 44 -18 19 -58 46 -88 60 -30 14 -59 33 -64 42 -7 12 -9 6
-9 -23z"/>
<path d="M2975 2097 c-10 -5 -14 -32 -14 -97 0 -50 3 -90 7 -91 51 -6 204 -4
208 3 11 17 9 180 -1 186 -14 10 -183 9 -200 -1z"/>
<path d="M3868 2093 c-11 -13 -5 -283 7 -348 4 -20 1 -37 -9 -50 -16 -20 -16
-20 -38 10 -77 103 -175 134 -309 100 -78 -21 -110 -41 -157 -101 -63 -81 -82
-146 -82 -284 0 -136 12 -203 48 -278 52 -107 141 -168 269 -183 93 -12 153 5
203 56 20 21 44 35 58 35 22 0 24 -3 19 -30 -9 -41 15 -51 114 -48 l80 3 0
553 c0 303 0 557 -1 563 0 8 -14 10 -37 7 -21 -3 -64 -2 -96 2 -42 4 -61 3
-69 -7z m97 -363 c18 -29 -46 -103 -75 -85 -17 11 -11 27 23 61 34 36 42 40
52 24z m-387 -27 c-2 -10 -13 -19 -26 -21 -24 -4 -29 7 -10 26 18 18 40 15 36
-5z m182 -80 c62 -32 89 -74 108 -168 36 -178 -25 -309 -155 -333 -61 -11 -94
0 -147 49 -60 54 -77 104 -78 218 -1 83 3 107 21 145 26 53 83 102 126 109 60
8 72 6 125 -20z m-340 -12 c-12 -24 -30 -28 -30 -6 0 13 31 38 38 30 2 -2 -1
-13 -8 -24z m560 -11 c0 -18 -32 -90 -40 -90 -10 0 -20 36 -20 73 0 23 4 27
30 27 17 0 30 -4 30 -10z m-546 -342 c3 -13 2 -26 -3 -31 -10 -10 -45 29 -36
42 11 19 32 12 39 -11z m516 -58 c0 -16 5 -41 12 -55 16 -36 -1 -53 -37 -37
-29 13 -32 37 -11 87 18 43 36 45 36 5z m-393 -117 c3 -7 -3 -9 -16 -6 -12 3
-21 10 -21 15 0 13 32 6 37 -9z"/>
<path d="M206 2063 c-33 -34 -36 -71 -36 -610 -1 -461 2 -539 15 -565 8 -17
15 -38 15 -47 0 -27 101 -127 161 -160 80 -45 187 -53 287 -22 61 19 191 98
212 130 3 4 28 21 55 37 28 16 73 48 101 70 28 23 71 55 94 71 24 15 50 33 58
38 8 6 29 22 46 38 17 15 35 27 41 27 17 0 175 118 175 130 0 6 8 14 18 18 56
24 132 76 132 92 0 10 6 23 14 29 54 45 2 255 -68 277 -11 4 -39 22 -60 40
-22 19 -45 34 -51 34 -6 0 -23 -12 -38 -27 -52 -54 -73 -69 -167 -125 -52 -32
-113 -75 -136 -96 -23 -21 -65 -53 -93 -71 -29 -17 -86 -57 -127 -89 -41 -31
-106 -79 -145 -107 -39 -27 -93 -69 -119 -92 -44 -41 -62 -48 -102 -45 -21 2
-24 28 -5 35 9 3 12 91 13 396 0 363 -1 393 -17 402 -10 5 -25 9 -34 9 -9 0
-33 16 -53 36 -20 20 -49 42 -64 50 -33 17 -68 61 -68 85 0 13 -7 19 -23 19
-13 0 -27 -3 -31 -7z m85 -148 c42 -27 44 -45 5 -45 -22 0 -56 36 -56 60 0 15
6 13 51 -15z m34 -88 c19 -1 31 -8 33 -19 3 -15 -4 -18 -45 -18 -50 0 -73 12
-73 38 0 11 7 13 28 7 15 -4 40 -7 57 -8z m87 -386 c6 -281 10 -350 23 -386
15 -39 15 -45 1 -73 -19 -36 -20 -77 -5 -121 21 -61 39 -32 39 65 l0 64 41 0
c43 0 87 19 131 58 27 25 48 23 48 -5 0 -13 7 -10 30 12 17 16 30 36 30 46 0
9 12 25 27 35 15 9 34 25 43 35 19 21 70 34 70 17 0 -6 -7 -20 -16 -30 -15
-16 -15 -18 -1 -24 51 -19 93 31 47 56 -22 12 -21 13 19 51 28 27 49 39 70 39
24 0 33 7 48 38 13 26 25 38 43 40 50 6 54 10 36 37 -17 25 -9 39 24 41 52 3
83 19 97 50 9 18 26 35 38 38 13 3 30 17 39 31 9 14 24 25 33 25 9 0 22 8 29
18 19 25 38 2 36 -46 -1 -28 4 -44 18 -57 11 -10 20 -26 20 -36 0 -31 11 -48
27 -42 33 13 46 -59 14 -77 -16 -8 -22 -6 -30 7 -9 16 -11 15 -20 -9 -8 -20
-17 -28 -36 -28 -29 0 -32 -8 -8 -25 17 -12 17 -14 -1 -34 -22 -24 -53 -27
-91 -7 -26 14 -29 13 -61 -18 -19 -18 -34 -38 -34 -45 0 -14 36 -15 45 -1 3 6
12 10 18 10 7 0 4 -7 -5 -14 -10 -7 -18 -18 -18 -25 0 -15 -43 -14 -58 1 -8 8
-14 5 -21 -15 -6 -15 -27 -35 -50 -46 -21 -11 -48 -32 -58 -47 -16 -21 -30
-28 -71 -32 -35 -3 -52 -9 -52 -18 0 -8 7 -14 15 -14 8 0 15 -4 15 -8 0 -13
-36 -43 -43 -36 -3 4 -20 -5 -37 -19 -16 -14 -40 -29 -52 -32 -13 -4 -37 -21
-54 -39 -36 -36 -117 -96 -129 -96 -5 0 -28 -9 -52 -21 -36 -17 -54 -20 -98
-14 -45 5 -55 10 -55 25 0 10 -4 29 -9 43 -8 21 -13 23 -53 18 -41 -6 -43 -5
-53 24 -5 16 -30 44 -55 63 -56 42 -66 69 -52 136 7 32 10 140 8 291 -2 132 0
285 3 340 l6 100 43 6 c23 3 48 11 54 17 7 7 19 11 28 10 13 -3 16 -51 22
-347z m1103 83 c0 -13 -6 -18 -20 -16 -27 5 -39 18 -32 36 9 22 52 5 52 -20z"/>
<path d="M1170 1327 c0 -10 4 -17 9 -17 5 0 11 -14 15 -32 l6 -31 25 23 c26
24 25 40 -2 40 -9 0 -25 7 -35 17 -17 15 -18 15 -18 0z"/>
<path d="M700 998 c0 -7 5 -20 10 -28 12 -19 35 2 27 24 -7 19 -37 21 -37 4z"/>
<path d="M543 753 c9 -2 25 -2 35 0 9 3 1 5 -18 5 -19 0 -27 -2 -17 -5z"/>
<path d="M470 1996 c0 -14 5 -28 10 -31 6 -4 10 7 10 24 0 17 -4 31 -10 31 -5
0 -10 -11 -10 -24z"/>
<path d="M583 1988 c2 -7 10 -13 17 -13 7 0 15 6 18 13 2 7 -5 12 -18 12 -13
0 -20 -5 -17 -12z"/>
<path d="M3415 1989 c-11 -16 0 -21 31 -13 25 6 26 8 9 15 -28 11 -33 10 -40
-2z"/>
<path d="M1915 1878 c-10 -26 2 -55 17 -40 8 8 8 18 1 34 -10 21 -12 21 -18 6z"/>
<path d="M560 1860 c0 -19 36 -60 52 -60 4 0 8 -6 8 -14 0 -8 8 -17 18 -20 10
-3 41 -28 70 -56 28 -27 66 -57 83 -66 18 -9 40 -24 51 -33 10 -10 38 -27 62
-39 24 -13 47 -29 50 -37 3 -8 17 -15 31 -15 14 0 25 -4 25 -9 0 -13 34 -23
54 -15 13 5 14 9 5 20 -6 8 -15 14 -19 14 -11 0 -56 38 -98 83 -19 20 -41 37
-49 37 -7 0 -27 14 -45 30 -17 17 -42 30 -54 30 -25 0 -33 15 -12 22 7 3 8 10
4 17 -6 8 -19 11 -40 7 -31 -6 -33 -4 -42 31 -10 40 -20 44 -71 28 -20 -7 -23
-4 -23 23 0 18 -6 32 -16 36 -29 11 -44 6 -44 -14z"/>
<path d="M2075 1801 c-15 -17 -16 -23 -5 -36 21 -25 60 -113 87 -195 13 -41
40 -115 60 -165 20 -49 42 -108 49 -130 7 -22 21 -60 30 -85 9 -25 29 -81 44
-125 l28 -80 103 -3 c139 -4 146 -2 154 50 5 39 14 66 50 153 7 17 20 55 30
85 10 30 21 64 26 75 12 28 36 99 60 175 12 36 25 70 29 75 4 6 10 24 14 40 6
27 20 62 47 117 21 43 13 49 -63 47 -40 0 -84 2 -98 5 -44 12 -52 -4 -155
-344 -13 -41 -26 -97 -29 -123 -7 -62 -11 -67 -46 -67 -27 0 -29 3 -36 48 -3
26 -12 61 -19 78 -7 17 -16 50 -20 72 -4 23 -11 44 -16 48 -5 3 -9 15 -9 27 0
12 -12 54 -26 92 -14 39 -29 87 -34 108 -11 55 -29 70 -71 60 -32 -9 -116 -2
-150 11 -9 4 -23 -2 -34 -13z m215 -206 c0 -14 -4 -25 -10 -25 -5 0 -10 11
-10 25 0 14 5 25 10 25 6 0 10 -11 10 -25z m130 -333 c15 10 23 9 38 -5 10 -9
32 -17 48 -17 17 0 35 -5 42 -12 17 -17 15 -74 -4 -92 -21 -21 -44 -20 -44 2
0 19 -18 42 -32 42 -5 0 -13 -11 -18 -25 -11 -28 -35 -33 -44 -9 -3 9 -6 32
-6 52 0 27 -6 41 -21 50 -20 13 -20 14 -2 34 l18 20 3 -26 c3 -22 6 -24 22
-14z"/>
<path d="M4560 1810 c-8 -5 -27 -10 -42 -10 -29 0 -88 -44 -88 -66 0 -15 -43
-29 -59 -19 -6 3 -11 22 -11 41 0 19 -3 34 -7 35 -57 6 -171 5 -179 -2 -8 -7
-9 -24 -2 -57 5 -26 8 -83 7 -127 0 -44 -1 -188 -1 -320 0 -132 0 -256 -1
-275 l-2 -35 95 -6 c115 -6 133 1 126 51 -9 61 -10 393 -2 443 7 38 18 57 53
92 43 44 44 44 121 47 l77 3 0 105 0 105 -35 3 c-19 1 -42 -2 -50 -8z m-242
-162 c26 -45 46 -97 39 -104 -3 -4 -20 1 -38 10 -39 20 -39 20 -39 1 0 -8 -4
-15 -10 -15 -13 0 -13 55 1 103 12 45 22 46 47 5z m117 -8 c-10 -11 -22 -17
-26 -14 -15 9 -10 22 9 27 33 9 35 7 17 -13z"/>
<path d="M4922 1784 c-41 -14 -89 -35 -108 -46 -45 -27 -94 -97 -130 -188 -25
-65 -29 -87 -28 -170 2 -141 36 -234 123 -334 24 -27 100 -63 185 -86 68 -19
85 -20 173 -10 118 13 182 41 249 108 25 26 57 71 71 100 30 66 49 223 33 280
-5 20 -10 48 -10 60 0 41 -55 145 -102 194 -56 57 -111 85 -206 104 -103 20
-165 17 -250 -12z m238 -165 c80 -34 128 -129 130 -252 0 -56 -17 -135 -35
-157 -7 -8 -15 -23 -18 -33 -9 -24 -103 -67 -147 -67 -50 0 -120 27 -153 58
-55 52 -62 76 -61 213 l0 126 37 44 c77 91 148 111 247 68z m140 -19 c0 -11
-4 -20 -10 -20 -5 0 -10 9 -10 20 0 11 5 20 10 20 6 0 10 -9 10 -20z m-450 -4
c0 -2 -3 -11 -6 -20 -9 -23 -24 -20 -24 4 0 11 7 20 15 20 8 0 15 -2 15 -4z
m510 -107 c0 -11 -4 -17 -10 -14 -5 3 -10 13 -10 21 0 8 5 14 10 14 6 0 10 -9
10 -21z m-574 -243 c-3 -14 -13 -26 -21 -26 -18 0 -19 9 -5 46 14 35 36 17 26
-20z m54 -77 c16 -29 2 -38 -18 -13 -9 12 -24 24 -32 27 -8 3 -3 6 12 6 18 1
31 -6 38 -20z m426 -88 c-8 -13 -36 -15 -36 -3 0 4 5 13 12 20 14 14 34 0 24
-17z"/>
<path d="M2970 1796 c-4 -11 -1 -806 3 -813 7 -12 205 -9 217 3 5 5 5 29 -1
59 -6 28 -11 208 -13 400 l-2 350 -102 1 c-56 1 -102 1 -102 0z"/>
<path d="M5890 1791 c-70 -9 -158 -51 -205 -99 -20 -20 -53 -68 -72 -107 -35
-68 -36 -73 -39 -195 -2 -144 9 -190 69 -285 61 -97 198 -168 327 -168 83 0
166 12 186 28 11 8 26 15 34 15 24 0 109 65 133 102 66 102 82 167 75 316 -5
97 -9 118 -39 182 -38 84 -102 145 -195 186 -64 29 -171 39 -274 25z m196
-192 c53 -25 88 -78 104 -156 28 -141 -8 -258 -94 -304 -27 -15 -66 -30 -86
-33 -84 -13 -203 62 -220 139 -15 62 -12 181 5 238 24 81 66 120 146 137 54
11 91 5 145 -21z m-306 0 c0 -6 -9 -13 -20 -16 -11 -3 -20 -9 -20 -14 0 -5 -9
-9 -21 -9 -12 0 -19 5 -16 13 2 6 11 11 19 9 9 -1 18 4 22 13 6 17 36 21 36 4z
m450 -5 c0 -17 -22 -14 -28 4 -2 7 3 12 12 12 9 0 16 -7 16 -16z m-550 -144
c0 -16 -23 -60 -32 -60 -12 0 -10 44 4 58 14 14 28 16 28 2z m580 -234 c0 -8
-4 -18 -10 -21 -5 -3 -10 3 -10 14 0 12 5 21 10 21 6 0 10 -6 10 -14z m-482
-114 c2 -12 -1 -22 -6 -22 -15 0 -34 28 -27 40 10 17 30 6 33 -18z"/>
<path d="M6865 1791 c-51 -9 -64 -16 -124 -74 -27 -26 -52 -47 -56 -47 -4 0
-5 24 -3 53 l3 52 -104 3 -104 3 8 -48 c4 -26 9 -300 10 -608 l3 -560 98 -3
c53 -1 100 1 104 5 14 14 -6 414 -22 460 -11 29 -12 45 -5 52 18 18 37 13 37
-9 0 -11 4 -20 9 -20 6 0 33 -22 61 -49 47 -45 56 -49 123 -59 140 -21 256 32
325 148 42 71 56 146 54 287 -1 130 -1 132 -38 203 -44 87 -112 159 -175 187
-53 24 -145 34 -204 24z m176 -117 c11 -14 9 -15 -16 -12 -16 1 -30 9 -33 16
-6 18 33 15 49 -4z m-382 -33 c15 -10 8 -61 -9 -61 -14 0 -32 39 -26 56 6 16
15 17 35 5z m317 -43 c29 -21 53 -50 70 -85 23 -46 26 -66 27 -155 1 -82 -3
-110 -17 -138 -41 -78 -89 -110 -165 -110 -65 0 -95 12 -140 58 -78 79 -91
302 -22 371 12 12 21 25 21 29 0 17 68 47 120 53 30 3 57 6 58 7 2 1 24 -12
48 -30z m174 -29 c0 -32 -3 -39 -20 -39 -23 0 -28 37 -9 71 15 29 29 14 29
-32z m-499 -36 c-5 -10 -12 -26 -15 -35 -3 -11 -11 -15 -21 -12 -22 9 -19 29
8 47 29 21 39 21 28 0z m-61 -123 c0 -22 -4 -40 -9 -40 -10 0 -23 58 -15 71
13 21 24 6 24 -31z m604 14 c9 -23 8 -24 -14 -24 -19 0 -27 20 -13 33 11 11
20 8 27 -9z m-34 -129 c0 -8 -4 -15 -10 -15 -5 0 -10 7 -10 15 0 8 5 15 10 15
6 0 10 -7 10 -15z m-550 -66 c7 -11 9 -31 6 -43 -3 -13 2 -32 11 -46 15 -22
15 -24 -6 -42 -13 -10 -29 -18 -37 -18 -19 0 -18 34 1 50 8 7 15 20 15 30 0
10 -7 20 -15 24 -20 7 -20 66 0 66 8 0 19 -9 25 -21z m550 -92 c0 -7 -6 -22
-14 -32 -18 -25 -46 -13 -46 20 0 21 5 25 30 25 18 0 30 -5 30 -13z m-210
-105 c0 -13 -12 -22 -22 -16 -10 6 -1 24 13 24 5 0 9 -4 9 -8z"/>
<path d="M1944 1747 c-9 -24 6 -44 18 -22 7 11 6 21 -1 28 -7 7 -12 6 -17 -6z"/>
<path d="M1400 940 c0 -16 5 -30 10 -30 6 0 10 14 10 30 0 17 -4 30 -10 30 -5
0 -10 -13 -10 -30z"/>
<path d="M4510 850 c-12 -8 -12 -10 2 -15 20 -8 41 2 33 16 -8 11 -16 11 -35
-1z"/>
<path d="M1385 820 c-8 -12 20 -24 35 -15 6 3 8 11 5 16 -8 12 -32 12 -40 -1z"/>
</g>
</svg>
